<svg xmlns="http://www.w3.org/2000/svg" xmlns:xlink="http://www.w3.org/1999/xlink" style="margin:auto;display:block;z-index:1;position:relative" width="1920" height="937" preserveAspectRatio="xMidYMid" viewBox="0 0 1920 937">
  <g transform="translate(960,468.5) scale(1,1) translate(-960,-468.5)"><path d="M-100 545.7C-64.84 550.54 -64.62 548.61 -31.61 548.61S3.58 549.47 36.77 549.47S71.83 555.67 105.16 555.67S140.43 561.49 173.55 561.49S209.9 550.7 241.94 550.7S277.66 548.09 310.32 548.09S344.74 546.27 378.71 546.27S414.06 557.09 447.1 557.09S483.55 562.17 515.48 562.17S550.59 563.24 583.87 563.24S618.66 562.25 652.26 562.25S687 560.81 720.65 560.81S755.96 566.36 789.03 566.36S824.99 547.29 857.42 547.29S892.71 556.29 925.81 556.29S961.57 557.94 994.19 557.94S1028.93 564.25 1062.58 564.25S1097.24 566.55 1130.97 566.55S1165.2 546.35 1199.35 546.35S1234.5 565.4 1267.74 565.4S1302.9 544.55 1336.13 544.55S1371.66 551.46 1404.52 551.46S1439.07 546.7 1472.9 546.7S1507.14 561.8 1541.29 561.8S1576.44 554.03 1609.68 554.03S1643.93 548.1 1678.06 548.1S1713.05 550 1746.45 550S1781.18 545.07 1814.84 545.07S1850.02 556.6 1883.23 556.6S1917.97 549.22 1951.61 549.22S1986.86 545.41 2020 545.41S2055.08 554.76 2088.39 554.76L2020 937 L-100 937 Z" fill="#1580ad" stroke-width="0">
    <animate attributeName="d" dur="25s" repeatCount="indefinite" values="M-100 545.7C-64.84 550.54 -64.62 548.61 -31.61 548.61S3.58 549.47 36.77 549.47S71.83 555.67 105.16 555.67S140.43 561.49 173.55 561.49S209.9 550.7 241.94 550.7S277.66 548.09 310.32 548.09S344.74 546.27 378.71 546.27S414.06 557.09 447.1 557.09S483.55 562.17 515.48 562.17S550.59 563.24 583.87 563.24S618.66 562.25 652.26 562.25S687 560.81 720.65 560.81S755.96 566.36 789.03 566.36S824.99 547.29 857.42 547.29S892.71 556.29 925.81 556.29S961.57 557.94 994.19 557.94S1028.93 564.25 1062.58 564.25S1097.24 566.55 1130.97 566.55S1165.2 546.35 1199.35 546.35S1234.5 565.4 1267.74 565.4S1302.9 544.55 1336.13 544.55S1371.66 551.46 1404.52 551.46S1439.07 546.7 1472.9 546.7S1507.14 561.8 1541.29 561.8S1576.44 554.03 1609.68 554.03S1643.93 548.1 1678.06 548.1S1713.05 550 1746.45 550S1781.18 545.07 1814.84 545.07S1850.02 556.6 1883.23 556.6S1917.97 549.22 1951.61 549.22S1986.86 545.41 2020 545.41S2055.08 554.76 2088.39 554.76L2020 937 L-100 937 Z;M-100 559.34C-64.89 565.8 -64.89 543.54 -31.61 543.54S2.61 544.63 36.77 544.63S73.03 547.44 105.16 547.44S140.51 547.5 173.55 547.5S208.12 563.49 241.94 563.49S277.3 544.19 310.32 544.19S345.77 564.66 378.71 564.66S414.64 558.32 447.1 558.32S482.25 548.56 515.48 548.56S550.62 562.13 583.87 562.13S618.56 552.32 652.26 552.32S686.58 564.58 720.65 564.58S756.3 560.58 789.03 560.58S823.6 556.37 857.42 556.37S892.34 549.38 925.81 549.38S960.68 558.44 994.19 558.44S1029.87 548.04 1062.58 548.04S1097.38 559.17 1130.97 559.17S1166.78 544.56 1199.35 544.56S1235.84 563.14 1267.74 563.14S1302.54 554.28 1336.13 554.28S1372.35 550.19 1404.52 550.19S1439.04 559.38 1472.9 559.38S1507.36 546.46 1541.29 546.46S1575.7 544.21 1609.68 544.21S1645.39 555.97 1678.06 555.97S1713.77 557.14 1746.45 557.14S1780.93 561.57 1814.84 561.57S1849.95 544.65 1883.23 544.65S1917.45 550.57 1951.61 550.57S1986.06 544.42 2020 544.42S2056.44 543.64 2088.39 543.64L2020 937 L-100 937 Z;M-100 545.7C-64.84 550.54 -64.62 548.61 -31.61 548.61S3.58 549.47 36.77 549.47S71.83 555.67 105.16 555.67S140.43 561.49 173.55 561.49S209.9 550.7 241.94 550.7S277.66 548.09 310.32 548.09S344.74 546.27 378.71 546.27S414.06 557.09 447.1 557.09S483.55 562.17 515.48 562.17S550.59 563.24 583.87 563.24S618.66 562.25 652.26 562.25S687 560.81 720.65 560.81S755.96 566.36 789.03 566.36S824.99 547.29 857.42 547.29S892.71 556.29 925.81 556.29S961.57 557.94 994.19 557.94S1028.93 564.25 1062.58 564.25S1097.24 566.55 1130.97 566.55S1165.2 546.35 1199.35 546.35S1234.5 565.4 1267.74 565.4S1302.9 544.55 1336.13 544.55S1371.66 551.46 1404.52 551.46S1439.07 546.7 1472.9 546.7S1507.14 561.8 1541.29 561.8S1576.44 554.03 1609.68 554.03S1643.93 548.1 1678.06 548.1S1713.05 550 1746.45 550S1781.18 545.07 1814.84 545.07S1850.02 556.6 1883.23 556.6S1917.97 549.22 1951.61 549.22S1986.86 545.41 2020 545.41S2055.08 554.76 2088.39 554.76L2020 937 L-100 937 Z"></animate>
    <animateTransform attributeName="transform" type="translate" dur="25s" begin="0s" repeatCount="indefinite" values="0;10;0" calcMode="spline" keySplines="0.3 0 0.7 1;0.3 0 0.7 1"></animateTransform>
  </path><path d="M-100 578.56C-63.19 574.13 -64.2 581.97 -29.8 581.97S6.37 576.11 40.4 576.11S75.72 584.9 110.6 584.9S145.71 573.57 180.79 573.57S216.2 578.91 250.99 578.91S286.2 589.15 321.19 589.15S358.34 576.62 391.39 576.62S428.64 578.55 461.59 578.55S498.56 590.88 531.79 590.88S568.48 574.29 601.99 574.29S638.51 584.52 672.19 584.52S707.57 567.66 742.38 567.66S778.31 583.15 812.58 583.15S849.84 589.67 882.78 589.67S918.58 584 952.98 584S989.87 587.16 1023.18 587.16S1058.57 590.27 1093.38 590.27S1130.31 583.9 1163.58 583.9S1199.08 574.43 1233.77 574.43S1268.95 568.7 1303.97 568.7S1340.38 594.35 1374.17 594.35S1411 589.99 1444.37 589.99S1481.77 575.98 1514.57 575.98S1550.99 571.77 1584.77 571.77S1621.65 583.49 1654.97 583.49S1691.07 573.95 1725.17 573.95S1761.77 579.25 1795.36 579.25S1830.7 582.89 1865.56 582.89S1900.88 576.67 1935.76 576.67S1972.53 590.14 2005.96 590.14S2043.08 572.45 2076.16 572.45L2020 937 L-100 937 Z" fill="#0087af" stroke-width="0">
    <animate attributeName="d" dur="22.5s" repeatCount="indefinite" values="M-100 578.56C-63.19 574.13 -64.2 581.97 -29.8 581.97S6.37 576.11 40.4 576.11S75.72 584.9 110.6 584.9S145.71 573.57 180.79 573.57S216.2 578.91 250.99 578.91S286.2 589.15 321.19 589.15S358.34 576.62 391.39 576.62S428.64 578.55 461.59 578.55S498.56 590.88 531.79 590.88S568.48 574.29 601.99 574.29S638.51 584.52 672.19 584.52S707.57 567.66 742.38 567.66S778.31 583.15 812.58 583.15S849.84 589.67 882.78 589.67S918.58 584 952.98 584S989.87 587.16 1023.18 587.16S1058.57 590.27 1093.38 590.27S1130.31 583.9 1163.58 583.9S1199.08 574.43 1233.77 574.43S1268.95 568.7 1303.97 568.7S1340.38 594.35 1374.17 594.35S1411 589.99 1444.37 589.99S1481.77 575.98 1514.57 575.98S1550.99 571.77 1584.77 571.77S1621.65 583.49 1654.97 583.49S1691.07 573.95 1725.17 573.95S1761.77 579.25 1795.36 579.25S1830.7 582.89 1865.56 582.89S1900.88 576.67 1935.76 576.67S1972.53 590.14 2005.96 590.14S2043.08 572.45 2076.16 572.45L2020 937 L-100 937 Z;M-100 577.61C-64.18 580.58 -64.02 589.59 -29.8 589.59S7.58 584.53 40.4 584.53S77.21 590.46 110.6 590.46S145.88 568.86 180.79 568.86S216.62 593.05 250.99 593.05S288.42 581.26 321.19 581.26S356.76 571.02 391.39 571.02S428.76 569.37 461.59 569.37S497.18 575.83 531.79 575.83S568.86 576.75 601.99 576.75S638.38 572.27 672.19 572.27S707.58 570.13 742.38 570.13S778.76 583.73 812.58 583.73S847.93 580.03 882.78 580.03S920.14 593.93 952.98 593.93S989.16 587.28 1023.18 587.28S1058.5 594.15 1093.38 594.15S1129.93 574.37 1163.58 574.37S1198.83 581.06 1233.77 581.06S1270.62 581.27 1303.97 581.27S1340.97 593.98 1374.17 593.98S1410.71 594.12 1444.37 594.12S1480.54 578.64 1514.57 578.64S1550.87 582.99 1584.77 582.99S1620.57 573.75 1654.97 573.75S1690.74 576.65 1725.17 576.65S1760.42 588.14 1795.36 588.14S1831.49 588.14 1865.56 588.14S1902.83 582.17 1935.76 582.17S1972.47 575.78 2005.96 575.78S2041.99 574.47 2076.16 574.47L2020 937 L-100 937 Z;M-100 578.56C-63.19 574.13 -64.2 581.97 -29.8 581.97S6.37 576.11 40.4 576.11S75.72 584.9 110.6 584.9S145.71 573.57 180.79 573.57S216.2 578.91 250.99 578.91S286.2 589.15 321.19 589.15S358.34 576.62 391.39 576.62S428.64 578.55 461.59 578.55S498.56 590.88 531.79 590.88S568.48 574.29 601.99 574.29S638.51 584.52 672.19 584.52S707.57 567.66 742.38 567.66S778.31 583.15 812.58 583.15S849.84 589.67 882.78 589.67S918.58 584 952.98 584S989.87 587.16 1023.18 587.16S1058.57 590.27 1093.38 590.27S1130.31 583.9 1163.58 583.9S1199.08 574.43 1233.77 574.43S1268.95 568.7 1303.97 568.7S1340.38 594.35 1374.17 594.35S1411 589.99 1444.37 589.99S1481.77 575.98 1514.57 575.98S1550.99 571.77 1584.77 571.77S1621.65 583.49 1654.97 583.49S1691.07 573.95 1725.17 573.95S1761.77 579.25 1795.36 579.25S1830.7 582.89 1865.56 582.89S1900.88 576.67 1935.76 576.67S1972.53 590.14 2005.96 590.14S2043.08 572.45 2076.16 572.45L2020 937 L-100 937 Z"></animate>
    <animateTransform attributeName="transform" type="translate" dur="22.5s" begin="-2.25s" repeatCount="indefinite" values="0;10;0" calcMode="spline" keySplines="0.3 0 0.7 1;0.3 0 0.7 1"></animateTransform>
  </path><path d="M-100 605.46C-61.67 598.73 -63.88 606.22 -27.89 606.22S8.3 596.15 44.22 596.15S80.66 598.32 116.33 598.32S153.52 595.41 188.44 595.41S226.66 601.83 260.54 601.83S296.83 591.09 332.65 591.09S370.17 606.25 404.76 606.25S442.15 611.93 476.87 611.93S513.67 619.75 548.98 619.75S585.45 606.96 621.09 606.96S658.41 604.69 693.2 604.69S730.54 618.15 765.31 618.15S803.53 592.06 837.41 592.06S875.41 603.5 909.52 603.5S945.63 616.47 981.63 616.47S1018.01 601.67 1053.74 601.67S1091.93 601.68 1125.85 601.68S1162.17 602.38 1197.96 602.38S1234.31 618.33 1270.07 618.33S1307.59 613.09 1342.18 613.09S1378.31 609.38 1414.29 609.38S1450.7 609.21 1486.39 609.21S1523.91 613.36 1558.5 613.36S1596.43 605.49 1630.61 605.49S1667.76 612.93 1702.72 612.93S1740.39 601.19 1774.83 601.19S1812.64 621.55 1846.94 621.55S1883.41 605.91 1919.05 605.91S1955.25 618.85 1991.16 618.85S2028.37 611.48 2063.27 611.48L2020 937 L-100 937 Z" fill="#008db1" stroke-width="0">
    <animate attributeName="d" dur="20s" repeatCount="indefinite" values="M-100 605.46C-61.67 598.73 -63.88 606.22 -27.89 606.22S8.3 596.15 44.22 596.15S80.66 598.32 116.33 598.32S153.52 595.41 188.44 595.41S226.66 601.83 260.54 601.83S296.83 591.09 332.65 591.09S370.17 606.25 404.76 606.25S442.15 611.93 476.87 611.93S513.67 619.75 548.98 619.75S585.45 606.96 621.09 606.96S658.41 604.69 693.2 604.69S730.54 618.15 765.31 618.15S803.53 592.06 837.41 592.06S875.41 603.5 909.52 603.5S945.63 616.47 981.63 616.47S1018.01 601.67 1053.74 601.67S1091.93 601.68 1125.85 601.68S1162.17 602.38 1197.96 602.38S1234.31 618.33 1270.07 618.33S1307.59 613.09 1342.18 613.09S1378.31 609.38 1414.29 609.38S1450.7 609.21 1486.39 609.21S1523.91 613.36 1558.5 613.36S1596.43 605.49 1630.61 605.49S1667.76 612.93 1702.72 612.93S1740.39 601.19 1774.83 601.19S1812.64 621.55 1846.94 621.55S1883.41 605.91 1919.05 605.91S1955.25 618.85 1991.16 618.85S2028.37 611.48 2063.27 611.48L2020 937 L-100 937 Z;M-100 601.62C-63.29 621.71 -63.83 617.36 -27.89 617.36S8.3 609.47 44.22 609.47S81.42 607.13 116.33 607.13S152.7 607.35 188.44 607.35S225.5 617.36 260.54 617.36S297.71 593.76 332.65 593.76S368.82 600.06 404.76 600.06S442.47 611.55 476.87 611.55S514.77 607.9 548.98 607.9S585.31 612.54 621.09 612.54S657.83 613.35 693.2 613.35S729.71 594.79 765.31 594.79S802.5 621.92 837.41 621.92S874.35 612.39 909.52 612.39S946.67 617.73 981.63 617.73S1019.41 604.83 1053.74 604.83S1089.89 594.1 1125.85 594.1S1162.53 612.94 1197.96 612.94S1235.78 613.26 1270.07 613.26S1306.46 591.94 1342.18 591.94S1378.64 606.86 1414.29 606.86S1451.41 606.07 1486.39 606.07S1523.29 609.63 1558.5 609.63S1594.98 607.04 1630.61 607.04S1668.57 600.65 1702.72 600.65S1739.03 590.48 1774.83 590.48S1811.12 613.16 1846.94 613.16S1884.6 598.84 1919.05 598.84S1956.2 612.25 1991.16 612.25S2027.55 605.91 2063.27 605.91L2020 937 L-100 937 Z;M-100 605.46C-61.67 598.73 -63.88 606.22 -27.89 606.22S8.3 596.15 44.22 596.15S80.66 598.32 116.33 598.32S153.52 595.41 188.44 595.41S226.66 601.83 260.54 601.83S296.83 591.09 332.65 591.09S370.17 606.25 404.76 606.25S442.15 611.93 476.87 611.93S513.67 619.75 548.98 619.75S585.45 606.96 621.09 606.96S658.41 604.69 693.2 604.69S730.54 618.15 765.31 618.15S803.53 592.06 837.41 592.06S875.41 603.5 909.52 603.5S945.63 616.47 981.63 616.47S1018.01 601.67 1053.74 601.67S1091.93 601.68 1125.85 601.68S1162.17 602.38 1197.96 602.38S1234.31 618.33 1270.07 618.33S1307.59 613.09 1342.18 613.09S1378.31 609.38 1414.29 609.38S1450.7 609.21 1486.39 609.21S1523.91 613.36 1558.5 613.36S1596.43 605.49 1630.61 605.49S1667.76 612.93 1702.72 612.93S1740.39 601.19 1774.83 601.19S1812.64 621.55 1846.94 621.55S1883.41 605.91 1919.05 605.91S1955.25 618.85 1991.16 618.85S2028.37 611.48 2063.27 611.48L2020 937 L-100 937 Z"></animate>
    <animateTransform attributeName="transform" type="translate" dur="20s" begin="-4s" repeatCount="indefinite" values="0;10;0" calcMode="spline" keySplines="0.3 0 0.7 1;0.3 0 0.7 1"></animateTransform>
  </path><path d="M-100 632.2C-61.17 651.14 -61.1 635.18 -25.87 635.18S12.42 627.41 48.25 627.41S86.93 641.15 122.38 641.15S161.37 617.67 196.5 617.67S235.49 636.89 270.63 636.89S309.14 632.76 344.76 632.76S383.22 635.99 418.88 635.99S455.97 617.07 493.01 617.07S530.92 640.91 567.13 640.91S604.21 630.76 641.26 630.76S680.59 632.55 715.38 632.55S754.35 639.01 789.51 639.01S828.3 636.32 863.64 636.32S900.73 615.59 937.76 615.59S977.05 650.76 1011.89 650.76S1051.19 632.12 1086.01 632.12S1124.48 648.87 1160.14 648.87S1199.42 632.19 1234.27 632.19S1272.86 621.26 1308.39 621.26S1347.59 632.84 1382.52 632.84S1420.87 647.25 1456.64 647.25S1493.73 632.73 1530.77 632.73S1567.94 628.4 1604.9 628.4S1642.98 625.75 1679.02 625.75S1717.24 635.76 1753.15 635.76S1790.95 631.08 1827.27 631.08S1865.4 628.21 1901.4 628.21S1939.79 619.67 1975.52 619.67S2012.96 627.84 2049.65 627.84L2020 937 L-100 937 Z" fill="#0094b1" stroke-width="0">
    <animate attributeName="d" dur="17.5s" repeatCount="indefinite" values="M-100 632.2C-61.17 651.14 -61.1 635.18 -25.87 635.18S12.42 627.41 48.25 627.41S86.93 641.15 122.38 641.15S161.37 617.67 196.5 617.67S235.49 636.89 270.63 636.89S309.14 632.76 344.76 632.76S383.22 635.99 418.88 635.99S455.97 617.07 493.01 617.07S530.92 640.91 567.13 640.91S604.21 630.76 641.26 630.76S680.59 632.55 715.38 632.55S754.35 639.01 789.51 639.01S828.3 636.32 863.64 636.32S900.73 615.59 937.76 615.59S977.05 650.76 1011.89 650.76S1051.19 632.12 1086.01 632.12S1124.48 648.87 1160.14 648.87S1199.42 632.19 1234.27 632.19S1272.86 621.26 1308.39 621.26S1347.59 632.84 1382.52 632.84S1420.87 647.25 1456.64 647.25S1493.73 632.73 1530.77 632.73S1567.94 628.4 1604.9 628.4S1642.98 625.75 1679.02 625.75S1717.24 635.76 1753.15 635.76S1790.95 631.08 1827.27 631.08S1865.4 628.21 1901.4 628.21S1939.79 619.67 1975.52 619.67S2012.96 627.84 2049.65 627.84L2020 937 L-100 937 Z;M-100 614.51C-62.71 622.95 -62.56 615.96 -25.87 615.96S11.63 620.41 48.25 620.41S85.75 644.19 122.38 644.19S159.73 619.14 196.5 619.14S233.73 649.9 270.63 649.9S308.12 623.68 344.76 623.68S383.84 643.92 418.88 643.92S457.18 630.18 493.01 630.18S532.02 637.95 567.13 637.95S604.41 632.32 641.26 632.32S678.86 634.45 715.38 634.45S752.9 621.73 789.51 621.73S827.12 617.03 863.64 617.03S900.71 628.28 937.76 628.28S976.27 637.64 1011.89 637.64S1049.2 630.15 1086.01 630.15S1124.41 646.59 1160.14 646.59S1199.19 617.41 1234.27 617.41S1273.4 644.36 1308.39 644.36S1346.55 615.88 1382.52 615.88S1420.62 649.61 1456.64 649.61S1495.71 632.44 1530.77 632.44S1568.35 650.31 1604.9 650.31S1642.94 623.12 1679.02 623.12S1716.59 642.62 1753.15 642.62S1792.44 632.03 1827.27 632.03S1866.49 630.5 1901.4 630.5S1938.6 630.82 1975.52 630.82S2014.92 636.97 2049.65 636.97L2020 937 L-100 937 Z;M-100 632.2C-61.17 651.14 -61.1 635.18 -25.87 635.18S12.42 627.41 48.25 627.41S86.93 641.15 122.38 641.15S161.37 617.67 196.5 617.67S235.49 636.89 270.63 636.89S309.14 632.76 344.76 632.76S383.22 635.99 418.88 635.99S455.97 617.07 493.01 617.07S530.92 640.91 567.13 640.91S604.21 630.76 641.26 630.76S680.59 632.55 715.38 632.55S754.35 639.01 789.51 639.01S828.3 636.32 863.64 636.32S900.73 615.59 937.76 615.59S977.05 650.76 1011.89 650.76S1051.19 632.12 1086.01 632.12S1124.48 648.87 1160.14 648.87S1199.42 632.19 1234.27 632.19S1272.86 621.26 1308.39 621.26S1347.59 632.84 1382.52 632.84S1420.87 647.25 1456.64 647.25S1493.73 632.73 1530.77 632.73S1567.94 628.4 1604.9 628.4S1642.98 625.75 1679.02 625.75S1717.24 635.76 1753.15 635.76S1790.95 631.08 1827.27 631.08S1865.4 628.21 1901.4 628.21S1939.79 619.67 1975.52 619.67S2012.96 627.84 2049.65 627.84L2020 937 L-100 937 Z"></animate>
    <animateTransform attributeName="transform" type="translate" dur="17.5s" begin="-5.25s" repeatCount="indefinite" values="0;10;0" calcMode="spline" keySplines="0.3 0 0.7 1;0.3 0 0.7 1"></animateTransform>
  </path><path d="M-100 639.01C-61.64 637.24 -61.46 662.81 -23.74 662.81S15.21 637.22 52.52 637.22S92.99 668.18 128.78 668.18S169.2 641.21 205.04 641.21S244.08 655.97 281.29 655.97S321.38 657.53 357.55 657.53S397.32 640.08 433.81 640.08S471.98 652.14 510.07 652.14S548.24 665.17 586.33 665.17S624.8 665.83 662.59 665.83S701.7 643.15 738.85 643.15S776.99 654.34 815.11 654.34S854.12 670.83 891.37 670.83S930.19 650.49 967.63 650.49S1006.6 675 1043.88 675S1082.57 642.3 1120.14 642.3S1160 672.6 1196.4 672.6S1235.31 639.88 1272.66 639.88S1311.82 667.67 1348.92 667.67S1387.06 651.57 1425.18 651.57S1463.5 658.25 1501.44 658.25S1541.52 642.57 1577.7 642.57S1616.45 660.98 1653.96 660.98S1692.35 648.58 1730.22 648.58S1770.62 676.84 1806.47 676.84S1845.35 658.43 1882.73 658.43S1922.66 662.49 1958.99 662.49S1999.36 645.55 2035.25 645.55L2020 937 L-100 937 Z" fill="#009ab1" stroke-width="0">
    <animate attributeName="d" dur="15s" repeatCount="indefinite" values="M-100 639.01C-61.64 637.24 -61.46 662.81 -23.74 662.81S15.21 637.22 52.52 637.22S92.99 668.18 128.78 668.18S169.2 641.21 205.04 641.21S244.08 655.97 281.29 655.97S321.38 657.53 357.55 657.53S397.32 640.08 433.81 640.08S471.98 652.14 510.07 652.14S548.24 665.17 586.33 665.17S624.8 665.83 662.59 665.83S701.7 643.15 738.85 643.15S776.99 654.34 815.11 654.34S854.12 670.83 891.37 670.83S930.19 650.49 967.63 650.49S1006.6 675 1043.88 675S1082.57 642.3 1120.14 642.3S1160 672.6 1196.4 672.6S1235.31 639.88 1272.66 639.88S1311.82 667.67 1348.92 667.67S1387.06 651.57 1425.18 651.57S1463.5 658.25 1501.44 658.25S1541.52 642.57 1577.7 642.57S1616.45 660.98 1653.96 660.98S1692.35 648.58 1730.22 648.58S1770.62 676.84 1806.47 676.84S1845.35 658.43 1882.73 658.43S1922.66 662.49 1958.99 662.49S1999.36 645.55 2035.25 645.55L2020 937 L-100 937 Z;M-100 646.12C-60.33 645.56 -60 658.6 -23.74 658.6S16.22 641.61 52.52 641.61S91.08 671.26 128.78 671.26S167.8 649.86 205.04 649.86S244.95 667.52 281.29 667.52S319.9 649.88 357.55 649.88S397.1 674.57 433.81 674.57S473.48 653.85 510.07 653.85S549.35 656.42 586.33 656.42S626.15 653.75 662.59 653.75S702.69 677.58 738.85 677.58S779.03 658.82 815.11 658.82S855.14 670.17 891.37 670.17S930.41 658.66 967.63 658.66S1005.89 664.65 1043.88 664.65S1083.97 653.38 1120.14 653.38S1158.3 674.49 1196.4 674.49S1235.22 658.03 1272.66 658.03S1312.23 659.74 1348.92 659.74S1387.19 653.4 1425.18 653.4S1465.44 672.11 1501.44 672.11S1541.08 671.08 1577.7 671.08S1617.85 639.17 1653.96 639.17S1692.34 638.46 1730.22 638.46S1769.81 668.44 1806.47 668.44S1845.98 675.26 1882.73 675.26S1922.82 662.89 1958.99 662.89S1998.72 654.34 2035.25 654.34L2020 937 L-100 937 Z;M-100 639.01C-61.64 637.24 -61.46 662.81 -23.74 662.81S15.21 637.22 52.52 637.22S92.99 668.18 128.78 668.18S169.2 641.21 205.04 641.21S244.08 655.97 281.29 655.97S321.38 657.53 357.55 657.53S397.32 640.08 433.81 640.08S471.98 652.14 510.07 652.14S548.24 665.17 586.33 665.17S624.8 665.83 662.59 665.83S701.7 643.15 738.85 643.15S776.99 654.34 815.11 654.34S854.12 670.83 891.37 670.83S930.19 650.49 967.63 650.49S1006.6 675 1043.88 675S1082.57 642.3 1120.14 642.3S1160 672.6 1196.4 672.6S1235.31 639.88 1272.66 639.88S1311.82 667.67 1348.92 667.67S1387.06 651.57 1425.18 651.57S1463.5 658.25 1501.44 658.25S1541.52 642.57 1577.7 642.57S1616.45 660.98 1653.96 660.98S1692.35 648.58 1730.22 648.58S1770.62 676.84 1806.47 676.84S1845.35 658.43 1882.73 658.43S1922.66 662.49 1958.99 662.49S1999.36 645.55 2035.25 645.55L2020 937 L-100 937 Z"></animate>
    <animateTransform attributeName="transform" type="translate" dur="15s" begin="-6s" repeatCount="indefinite" values="0;10;0" calcMode="spline" keySplines="0.3 0 0.7 1;0.3 0 0.7 1"></animateTransform>
  </path><path d="M-100 662.34C-60.51 672.09 -59.4 704.98 -21.48 704.98S18.2 675.68 57.04 675.68S98.41 699.04 135.56 699.04S177.1 673.56 214.07 673.56S254.72 695.71 292.59 695.71S332.61 672.3 371.11 672.3S412.48 700.05 449.63 700.05S489.87 662.69 528.15 662.69S569.47 688.43 606.67 688.43S648.19 672.37 685.19 672.37S725.96 703.08 763.7 703.08S804.61 684.73 842.22 684.73S882.98 702.34 920.74 702.34S961.33 673.75 999.26 673.75S1039.16 701.03 1077.78 701.03S1118.85 663.06 1156.3 663.06S1197.26 689.59 1234.81 689.59S1275.44 682.18 1313.33 682.18S1353.71 693.57 1391.85 693.57S1432.34 660.82 1470.37 660.82S1511.72 695.77 1548.89 695.77S1588.66 680.58 1627.41 680.58S1667.59 702.57 1705.93 702.57S1746.89 690.8 1784.44 690.8S1825.59 690.1 1862.96 690.1S1902.25 679.61 1941.48 679.61S1981.11 688.98 2020 688.98S2061.23 682.93 2098.52 682.93L2020 937 L-100 937 Z" fill="#00a0b1" stroke-width="0">
    <animate attributeName="d" dur="12.5s" repeatCount="indefinite" values="M-100 662.34C-60.51 672.09 -59.4 704.98 -21.48 704.98S18.2 675.68 57.04 675.68S98.41 699.04 135.56 699.04S177.1 673.56 214.07 673.56S254.72 695.71 292.59 695.71S332.61 672.3 371.11 672.3S412.48 700.05 449.63 700.05S489.87 662.69 528.15 662.69S569.47 688.43 606.67 688.43S648.19 672.37 685.19 672.37S725.96 703.08 763.7 703.08S804.61 684.73 842.22 684.73S882.98 702.34 920.74 702.34S961.33 673.75 999.26 673.75S1039.16 701.03 1077.78 701.03S1118.85 663.06 1156.3 663.06S1197.26 689.59 1234.81 689.59S1275.44 682.18 1313.33 682.18S1353.71 693.57 1391.85 693.57S1432.34 660.82 1470.37 660.82S1511.72 695.77 1548.89 695.77S1588.66 680.58 1627.41 680.58S1667.59 702.57 1705.93 702.57S1746.89 690.8 1784.44 690.8S1825.59 690.1 1862.96 690.1S1902.25 679.61 1941.48 679.61S1981.11 688.98 2020 688.98S2061.23 682.93 2098.52 682.93L2020 937 L-100 937 Z;M-100 698.77C-59.19 706.57 -60.15 705.96 -21.48 705.96S20.01 663.72 57.04 663.72S97.17 702.3 135.56 702.3S176.64 681.59 214.07 681.59S254.23 698.64 292.59 698.64S332.8 672.31 371.11 672.31S412.01 695.79 449.63 695.79S489.51 675.25 528.15 675.25S567.56 692.93 606.67 692.93S647.6 664.45 685.19 664.45S725.47 702.99 763.7 702.99S803.22 672.94 842.22 672.94S883.23 700.29 920.74 700.29S960.51 680.48 999.26 680.48S1040.21 703.8 1077.78 703.8S1118.73 673.03 1156.3 673.03S1196.66 701.17 1234.81 701.17S1275.87 672.36 1313.33 672.36S1352.61 706.77 1391.85 706.77S1432.94 665.19 1470.37 665.19S1511.64 694.22 1548.89 694.22S1589.92 691.91 1627.41 691.91S1666.96 685.91 1705.93 685.91S1745.33 682.8 1784.44 682.8S1824.73 694.29 1862.96 694.29S1902.33 661.65 1941.48 661.65S1981.29 706.01 2020 706.01S2060.93 663.91 2098.52 663.91L2020 937 L-100 937 Z;M-100 662.34C-60.51 672.09 -59.4 704.98 -21.48 704.98S18.2 675.68 57.04 675.68S98.41 699.04 135.56 699.04S177.1 673.56 214.07 673.56S254.72 695.71 292.59 695.71S332.61 672.3 371.11 672.3S412.48 700.05 449.63 700.05S489.87 662.69 528.15 662.69S569.47 688.43 606.67 688.43S648.19 672.37 685.19 672.37S725.96 703.08 763.7 703.08S804.61 684.73 842.22 684.73S882.98 702.34 920.74 702.34S961.33 673.75 999.26 673.75S1039.16 701.03 1077.78 701.03S1118.85 663.06 1156.3 663.06S1197.26 689.59 1234.81 689.59S1275.44 682.18 1313.33 682.18S1353.71 693.57 1391.85 693.57S1432.34 660.82 1470.37 660.82S1511.72 695.77 1548.89 695.77S1588.66 680.58 1627.41 680.58S1667.59 702.57 1705.93 702.57S1746.89 690.8 1784.44 690.8S1825.59 690.1 1862.96 690.1S1902.25 679.61 1941.48 679.61S1981.11 688.98 2020 688.98S2061.23 682.93 2098.52 682.93L2020 937 L-100 937 Z"></animate>
    <animateTransform attributeName="transform" type="translate" dur="12.5s" begin="-6.25s" repeatCount="indefinite" values="0;10;0" calcMode="spline" keySplines="0.3 0 0.7 1;0.3 0 0.7 1"></animateTransform>
  </path><path d="M-100 691.27C-57.76 684.3 -58.35 735.52 -19.08 735.52S22.79 688.15 61.83 688.15S102.85 730.97 142.75 730.97S184.81 685.05 223.66 685.05S264.6 732.58 304.58 732.58S346.9 702.39 385.5 702.39S426.24 725.15 466.41 725.15S507.76 693.96 547.33 693.96S590.08 729.19 628.24 729.19S670.32 698.67 709.16 698.67S750.64 734.85 790.08 734.85S832.1 703.53 870.99 703.53S912.86 730.47 951.91 730.47S993.79 705.93 1032.82 705.93S1073.34 720.03 1113.74 720.03S1156.49 702.81 1194.66 702.81S1237.16 731 1275.57 731S1317.79 726.4 1356.49 726.4S1398.46 725.88 1437.4 725.88S1478.61 705.83 1518.32 705.83S1559.48 729.29 1599.24 729.29S1639.94 712.38 1680.15 712.38S1722.12 716.11 1761.07 716.11S1801.58 721.16 1841.98 721.16S1882.57 721.39 1922.9 721.39S1964.62 703.09 2003.82 703.09S2046.24 702.87 2084.73 702.87L2020 937 L-100 937 Z" fill="#00a6af" stroke-width="0">
    <animate attributeName="d" dur="10s" repeatCount="indefinite" values="M-100 691.27C-57.76 684.3 -58.35 735.52 -19.08 735.52S22.79 688.15 61.83 688.15S102.85 730.97 142.75 730.97S184.81 685.05 223.66 685.05S264.6 732.58 304.58 732.58S346.9 702.39 385.5 702.39S426.24 725.15 466.41 725.15S507.76 693.96 547.33 693.96S590.08 729.19 628.24 729.19S670.32 698.67 709.16 698.67S750.64 734.85 790.08 734.85S832.1 703.53 870.99 703.53S912.86 730.47 951.91 730.47S993.79 705.93 1032.82 705.93S1073.34 720.03 1113.74 720.03S1156.49 702.81 1194.66 702.81S1237.16 731 1275.57 731S1317.79 726.4 1356.49 726.4S1398.46 725.88 1437.4 725.88S1478.61 705.83 1518.32 705.83S1559.48 729.29 1599.24 729.29S1639.94 712.38 1680.15 712.38S1722.12 716.11 1761.07 716.11S1801.58 721.16 1841.98 721.16S1882.57 721.39 1922.9 721.39S1964.62 703.09 2003.82 703.09S2046.24 702.87 2084.73 702.87L2020 937 L-100 937 Z;M-100 703.85C-59.16 692.62 -58.64 726.74 -19.08 726.74S23.71 700.72 61.83 700.72S102.64 684.91 142.75 684.91S185.11 697.03 223.66 697.03S266.08 725.11 304.58 725.11S346.37 693.81 385.5 693.81S426.77 715.07 466.41 715.07S508.26 684.53 547.33 684.53S588.29 717.66 628.24 717.66S669.54 695.15 709.16 695.15S751.72 700.71 790.08 700.71S831.08 715.92 870.99 715.92S912.75 690.26 951.91 690.26S994.56 697.03 1032.82 697.03S1074.45 716.52 1113.74 716.52S1155.01 691.9 1194.66 691.9S1235.67 695.57 1275.57 695.57S1317.68 705.3 1356.49 705.3S1397.41 723.57 1437.4 723.57S1477.96 702.92 1518.32 702.92S1559.45 715.07 1599.24 715.07S1639.94 695.3 1680.15 695.3S1721.98 724.33 1761.07 724.33S1802.44 700.85 1841.98 700.85S1883.7 716.61 1922.9 716.61S1964.25 691.79 2003.82 691.79S2045.47 724.32 2084.73 724.32L2020 937 L-100 937 Z;M-100 691.27C-57.76 684.3 -58.35 735.52 -19.08 735.52S22.79 688.15 61.83 688.15S102.85 730.97 142.75 730.97S184.81 685.05 223.66 685.05S264.6 732.58 304.58 732.58S346.9 702.39 385.5 702.39S426.24 725.15 466.41 725.15S507.76 693.96 547.33 693.96S590.08 729.19 628.24 729.19S670.32 698.67 709.16 698.67S750.64 734.85 790.08 734.85S832.1 703.53 870.99 703.53S912.86 730.47 951.91 730.47S993.79 705.93 1032.82 705.93S1073.34 720.03 1113.74 720.03S1156.49 702.81 1194.66 702.81S1237.16 731 1275.57 731S1317.79 726.4 1356.49 726.4S1398.46 725.88 1437.4 725.88S1478.61 705.83 1518.32 705.83S1559.48 729.29 1599.24 729.29S1639.94 712.38 1680.15 712.38S1722.12 716.11 1761.07 716.11S1801.58 721.16 1841.98 721.16S1882.57 721.39 1922.9 721.39S1964.62 703.09 2003.82 703.09S2046.24 702.87 2084.73 702.87L2020 937 L-100 937 Z"></animate>
    <animateTransform attributeName="transform" type="translate" dur="10s" begin="-6s" repeatCount="indefinite" values="0;10;0" calcMode="spline" keySplines="0.3 0 0.7 1;0.3 0 0.7 1"></animateTransform>
  </path><path d="M-100 726.32C-58.01 710.18 -57.14 751.54 -16.54 751.54S25.55 707.62 66.93 707.62S108.83 749.81 150.39 749.81S192.74 709.45 233.86 709.45S277.73 749.9 317.32 749.9S359.22 713.85 400.79 713.85S442.77 762 484.25 762S527.94 716.05 567.72 716.05S610.86 754.93 651.18 754.93S693.2 726.23 734.65 726.23S778.27 754.29 818.11 754.29S860.02 741.84 901.57 741.84S945.43 753.35 985.04 753.35S1027.36 728.03 1068.5 728.03S1112.39 752.35 1151.97 752.35S1195.96 730.55 1235.43 730.55S1277.72 753.25 1318.9 753.25S1361.88 723.2 1402.36 723.2S1445.49 746.89 1485.83 746.89S1529.05 712.52 1569.29 712.52S1611.56 747.79 1652.76 747.79S1695.2 707.95 1736.22 707.95S1778.48 744.89 1819.69 744.89S1861.69 726.08 1903.15 726.08S1945.65 741.25 1986.61 741.25S2030.14 728.34 2070.08 728.34L2020 937 L-100 937 Z" fill="#08acae" stroke-width="0">
    <animate attributeName="d" dur="7.5s" repeatCount="indefinite" values="M-100 726.32C-58.01 710.18 -57.14 751.54 -16.54 751.54S25.55 707.62 66.93 707.62S108.83 749.81 150.39 749.81S192.74 709.45 233.86 709.45S277.73 749.9 317.32 749.9S359.22 713.85 400.79 713.85S442.77 762 484.25 762S527.94 716.05 567.72 716.05S610.86 754.93 651.18 754.93S693.2 726.23 734.65 726.23S778.27 754.29 818.11 754.29S860.02 741.84 901.57 741.84S945.43 753.35 985.04 753.35S1027.36 728.03 1068.5 728.03S1112.39 752.35 1151.97 752.35S1195.96 730.55 1235.43 730.55S1277.72 753.25 1318.9 753.25S1361.88 723.2 1402.36 723.2S1445.49 746.89 1485.83 746.89S1529.05 712.52 1569.29 712.52S1611.56 747.79 1652.76 747.79S1695.2 707.95 1736.22 707.95S1778.48 744.89 1819.69 744.89S1861.69 726.08 1903.15 726.08S1945.65 741.25 1986.61 741.25S2030.14 728.34 2070.08 728.34L2020 937 L-100 937 Z;M-100 708.07C-58.05 717.46 -57.07 747.39 -16.54 747.39S27.08 711.88 66.93 711.88S110.82 741.35 150.39 741.35S193.08 717.02 233.86 717.02S276.29 746.34 317.32 746.34S359.62 714.02 400.79 714.02S444.69 745.64 484.25 745.64S526.13 714.31 567.72 714.31S610.66 748.87 651.18 748.87S694.62 710.68 734.65 710.68S777.72 745.87 818.11 745.87S861.92 727.46 901.57 727.46S944.36 750.58 985.04 750.58S1028.52 745.42 1068.5 745.42S1111.27 746.62 1151.97 746.62S1195.46 715.58 1235.43 715.58S1278.68 721.56 1318.9 721.56S1360.75 723.34 1402.36 723.34S1445.91 763.11 1485.83 763.11S1529.01 725.75 1569.29 725.75S1611.09 743.89 1652.76 743.89S1695.52 711.7 1736.22 711.7S1778.87 762.95 1819.69 762.95S1863.3 714.77 1903.15 714.77S1946.81 742.82 1986.61 742.82S2029.46 730.85 2070.08 730.85L2020 937 L-100 937 Z;M-100 726.32C-58.01 710.18 -57.14 751.54 -16.54 751.54S25.55 707.62 66.93 707.62S108.83 749.81 150.39 749.81S192.74 709.45 233.86 709.45S277.73 749.9 317.32 749.9S359.22 713.85 400.79 713.85S442.77 762 484.25 762S527.94 716.05 567.72 716.05S610.86 754.93 651.18 754.93S693.2 726.23 734.65 726.23S778.27 754.29 818.11 754.29S860.02 741.84 901.57 741.84S945.43 753.35 985.04 753.35S1027.36 728.03 1068.5 728.03S1112.39 752.35 1151.97 752.35S1195.96 730.55 1235.43 730.55S1277.72 753.25 1318.9 753.25S1361.88 723.2 1402.36 723.2S1445.49 746.89 1485.83 746.89S1529.05 712.52 1569.29 712.52S1611.56 747.79 1652.76 747.79S1695.2 707.95 1736.22 707.95S1778.48 744.89 1819.69 744.89S1861.69 726.08 1903.15 726.08S1945.65 741.25 1986.61 741.25S2030.14 728.34 2070.08 728.34L2020 937 L-100 937 Z"></animate>
    <animateTransform attributeName="transform" type="translate" dur="7.5s" begin="-5.25s" repeatCount="indefinite" values="0;10;0" calcMode="spline" keySplines="0.3 0 0.7 1;0.3 0 0.7 1"></animateTransform>
  </path><path d="M-100 740.32C-55.5 744.38 -54.58 771.99 -13.82 771.99S30.85 733.07 72.36 733.07S117.38 734.65 158.54 734.65S202.71 734.1 244.72 734.1S289.04 776.26 330.89 776.26S376.03 743.23 417.07 743.23S462.27 769.18 503.25 769.18S548.65 750.8 589.43 750.8S634.5 774.63 675.61 774.63S718.81 731.86 761.79 731.86S806.64 770.21 847.97 770.21S892.35 732.08 934.15 732.08S977.63 784.24 1020.33 784.24S1064.14 732.52 1106.5 732.52S1150.99 772.17 1192.68 772.17S1236.09 751.42 1278.86 751.42S1322.98 733.2 1365.04 733.2S1410.31 732.61 1451.22 732.61S1496.55 776.21 1537.4 776.21S1582.74 783.43 1623.58 783.43S1667.53 768.38 1709.76 768.38S1755.14 737.75 1795.93 737.75S1840.11 778.86 1882.11 778.86S1926.17 747.07 1968.29 747.07S2012.56 773.55 2054.47 773.55L2020 937 L-100 937 Z" fill="#20b2ab" stroke-width="0">
    <animate attributeName="d" dur="5s" repeatCount="indefinite" values="M-100 740.32C-55.5 744.38 -54.58 771.99 -13.82 771.99S30.85 733.07 72.36 733.07S117.38 734.65 158.54 734.65S202.71 734.1 244.72 734.1S289.04 776.26 330.89 776.26S376.03 743.23 417.07 743.23S462.27 769.18 503.25 769.18S548.65 750.8 589.43 750.8S634.5 774.63 675.61 774.63S718.81 731.86 761.79 731.86S806.64 770.21 847.97 770.21S892.35 732.08 934.15 732.08S977.63 784.24 1020.33 784.24S1064.14 732.52 1106.5 732.52S1150.99 772.17 1192.68 772.17S1236.09 751.42 1278.86 751.42S1322.98 733.2 1365.04 733.2S1410.31 732.61 1451.22 732.61S1496.55 776.21 1537.4 776.21S1582.74 783.43 1623.58 783.43S1667.53 768.38 1709.76 768.38S1755.14 737.75 1795.93 737.75S1840.11 778.86 1882.11 778.86S1926.17 747.07 1968.29 747.07S2012.56 773.55 2054.47 773.55L2020 937 L-100 937 Z;M-100 751.03C-55.59 733.05 -56.24 772.47 -13.82 772.47S29.81 749.49 72.36 749.49S115.71 778.06 158.54 778.06S203.41 750.96 244.72 750.96S287.91 787.32 330.89 787.32S374.42 740.72 417.07 740.72S460.47 773.98 503.25 773.98S546.75 770.03 589.43 770.03S634.84 750.67 675.61 750.67S719.96 732.23 761.79 732.23S806.75 787.61 847.97 787.61S891.72 740.99 934.15 740.99S978.44 778.33 1020.33 778.33S1063.53 751.29 1106.5 751.29S1151.91 777.49 1192.68 777.49S1237.22 753.63 1278.86 753.63S1323.35 786.62 1365.04 786.62S1408.34 752.13 1451.22 752.13S1496.4 782.95 1537.4 782.95S1581.94 734.88 1623.58 734.88S1667.56 786.78 1709.76 786.78S1753.98 750.12 1795.93 750.12S1841.24 776.23 1882.11 776.23S1925.93 787.24 1968.29 787.24S2012.29 768.52 2054.47 768.52L2020 937 L-100 937 Z;M-100 740.32C-55.5 744.38 -54.58 771.99 -13.82 771.99S30.85 733.07 72.36 733.07S117.38 734.65 158.54 734.65S202.71 734.1 244.72 734.1S289.04 776.26 330.89 776.26S376.03 743.23 417.07 743.23S462.27 769.18 503.25 769.18S548.65 750.8 589.43 750.8S634.5 774.63 675.61 774.63S718.81 731.86 761.79 731.86S806.64 770.21 847.97 770.21S892.35 732.08 934.15 732.08S977.63 784.24 1020.33 784.24S1064.14 732.52 1106.5 732.52S1150.99 772.17 1192.68 772.17S1236.09 751.42 1278.86 751.42S1322.98 733.2 1365.04 733.2S1410.31 732.61 1451.22 732.61S1496.55 776.21 1537.4 776.21S1582.74 783.43 1623.58 783.43S1667.53 768.38 1709.76 768.38S1755.14 737.75 1795.93 737.75S1840.11 778.86 1882.11 778.86S1926.17 747.07 1968.29 747.07S2012.56 773.55 2054.47 773.55L2020 937 L-100 937 Z"></animate>
    <animateTransform attributeName="transform" type="translate" dur="5s" begin="-4s" repeatCount="indefinite" values="0;10;0" calcMode="spline" keySplines="0.3 0 0.7 1;0.3 0 0.7 1"></animateTransform>
  </path><path d="M-100 760.95C-53.99 755.39 -55.06 757.47 -10.92 757.47S35.53 776.08 78.15 776.08S123.18 814.28 167.23 814.28S213.58 766.85 256.3 766.85S302.64 759.21 345.38 759.21S392.06 777.11 434.45 777.11S481.28 817.57 523.53 817.57S568.65 765.4 612.61 765.4S659.19 805.94 701.68 805.94S747.07 769.68 790.76 769.68S837.52 801.07 879.83 801.07S926.13 755.85 968.91 755.85S1015.39 813.17 1057.98 813.17S1102.66 773.57 1147.06 773.57S1192.73 761.68 1236.13 761.68S1281.81 762.59 1325.21 762.59S1371.88 816.17 1414.29 816.17S1460.5 764.42 1503.36 764.42S1547.9 757.24 1592.44 757.24S1637.86 771.06 1681.51 771.06S1726.1 759.32 1770.59 759.32S1816.28 761.58 1859.66 761.58S1904.68 815.32 1948.74 815.32S1995.43 755.79 2037.82 755.79L2020 937 L-100 937 Z" fill="#31b8a9" stroke-width="0">
    <animate attributeName="d" dur="2.5s" repeatCount="indefinite" values="M-100 760.95C-53.99 755.39 -55.06 757.47 -10.92 757.47S35.53 776.08 78.15 776.08S123.18 814.28 167.23 814.28S213.58 766.85 256.3 766.85S302.64 759.21 345.38 759.21S392.06 777.11 434.45 777.11S481.28 817.57 523.53 817.57S568.65 765.4 612.61 765.4S659.19 805.94 701.68 805.94S747.07 769.68 790.76 769.68S837.52 801.07 879.83 801.07S926.13 755.85 968.91 755.85S1015.39 813.17 1057.98 813.17S1102.66 773.57 1147.06 773.57S1192.73 761.68 1236.13 761.68S1281.81 762.59 1325.21 762.59S1371.88 816.17 1414.29 816.17S1460.5 764.42 1503.36 764.42S1547.9 757.24 1592.44 757.24S1637.86 771.06 1681.51 771.06S1726.1 759.32 1770.59 759.32S1816.28 761.58 1859.66 761.58S1904.68 815.32 1948.74 815.32S1995.43 755.79 2037.82 755.79L2020 937 L-100 937 Z;M-100 763.04C-53.39 754.78 -55.28 815.23 -10.92 815.23S34.02 774.11 78.15 774.11S123.74 803.23 167.23 803.23S213.59 754.84 256.3 754.84S302.28 760.8 345.38 760.8S390 767.57 434.45 767.57S481.24 803.44 523.53 803.44S570.31 815.05 612.61 815.05S659.1 813.77 701.68 813.77S747.85 774.68 790.76 774.68S837.42 817.42 879.83 817.42S926.45 755.93 968.91 755.93S1015.66 798.97 1057.98 798.97S1102.9 768.15 1147.06 768.15S1193.43 815.43 1236.13 815.43S1281.18 765.85 1325.21 765.85S1371.63 814.67 1414.29 814.67S1460.9 776.21 1503.36 776.21S1549.93 807.26 1592.44 807.26S1637.78 758.11 1681.51 758.11S1727.7 814.59 1770.59 814.59S1817.46 809.43 1859.66 809.43S1904.86 812.34 1948.74 812.34S1995.01 762.34 2037.82 762.34L2020 937 L-100 937 Z;M-100 760.95C-53.99 755.39 -55.06 757.47 -10.92 757.47S35.53 776.08 78.15 776.08S123.18 814.28 167.23 814.28S213.58 766.85 256.3 766.85S302.64 759.21 345.38 759.21S392.06 777.11 434.45 777.11S481.28 817.57 523.53 817.57S568.65 765.4 612.61 765.4S659.19 805.94 701.68 805.94S747.07 769.68 790.76 769.68S837.52 801.07 879.83 801.07S926.13 755.85 968.91 755.85S1015.39 813.17 1057.98 813.17S1102.66 773.57 1147.06 773.57S1192.73 761.68 1236.13 761.68S1281.81 762.59 1325.21 762.59S1371.88 816.17 1414.29 816.17S1460.5 764.42 1503.36 764.42S1547.9 757.24 1592.44 757.24S1637.86 771.06 1681.51 771.06S1726.1 759.32 1770.59 759.32S1816.28 761.58 1859.66 761.58S1904.68 815.32 1948.74 815.32S1995.43 755.79 2037.82 755.79L2020 937 L-100 937 Z"></animate>
    <animateTransform attributeName="transform" type="translate" dur="2.5s" begin="-2.25s" repeatCount="indefinite" values="0;10;0" calcMode="spline" keySplines="0.3 0 0.7 1;0.3 0 0.7 1"></animateTransform>
  </path></g>
</svg>
